<svg xmlns="http://www.w3.org/2000/svg" viewBox="0 0 208.52 105.81">
    <defs/>
    <g id="Laag_1-2">
        <path fill="#FABB00" class="byWhiteVision" d="M0 90.2h5.85c2.44 0 4.12 1.65 4.12 4.05 0 1.78-.9 2.79-1.87 3.28 1.39.44 2.44 1.63 2.44 3.67 0 2.68-1.47 4.4-4.53 4.4H0V90.2Zm5.46 6.75c1.72 0 3.02-.81 3.02-2.71 0-1.65-1.12-2.66-3.02-2.66H1.47v5.37h3.98Zm.35 7.26c2.13 0 3.23-1.17 3.23-3.01s-1.21-2.9-3.32-2.9H1.47v5.92h4.34ZM19.56 98.57h-.59l-4.8-8.36h1.65l4.51 7.96 4.49-7.96h1.61l-4.77 8.36h-.59v7.04h-1.5v-7.04ZM47.72 90.6l-3.04 15.01h-2.75l-3.39-15.4h1.5l3.28 15.01 3.04-15.01h2.73l3.04 15.01 3.28-15.01h1.5l-3.39 15.4h-2.75L47.73 90.6ZM71.61 98.41h-8.07v7.2h-1.5v-15.4h1.5v6.78h8.07v-6.78h1.5v15.4h-1.5v-7.2ZM78.66 104.2h3.32V91.61h-3.32V90.2h8.14v1.41h-3.32v12.59h3.32v1.41h-8.14v-1.41ZM96.29 91.59h-4.64V90.2h10.78v1.39h-4.62v14.02h-1.52V91.59ZM107.59 90.2h9.2v1.39h-7.7v5.37h7.02v1.39h-7.02v5.88h7.7v1.39h-9.2v-15.4ZM121.47 90.2h1.61l4.64 15.01 4.64-15.01h1.61l-4.82 15.4h-2.86l-4.82-15.4ZM138.76 104.2h3.32V91.61h-3.32V90.2h8.14v1.41h-3.32v12.59h3.32v1.41h-8.14v-1.41ZM151.48 100.99h1.5c.07 2.07 1.28 3.46 3.98 3.46 2.46 0 3.89-1.03 3.89-2.97 0-1.56-.97-2.42-2.73-2.84l-2.42-.57c-2.18-.51-3.7-1.67-3.7-3.98 0-2.49 1.96-4.07 4.97-4.07s5.1 1.87 5.13 4.45h-1.5c-.04-1.78-1.34-3.06-3.65-3.06-1.98 0-3.45.88-3.45 2.68 0 1.47 1.06 2.18 2.62 2.55l2.31.57c2.53.64 3.94 1.91 3.94 4.27 0 2.68-2.07 4.33-5.41 4.33-3.74 0-5.41-1.96-5.48-4.82ZM167.08 104.2h3.32V91.61h-3.32V90.2h8.14v1.41h-3.32v12.59h3.32v1.41h-8.14v-1.41ZM179.67 99.36v-2.9c0-4.2 2.13-6.45 5.94-6.45s5.94 2.25 5.94 6.45v2.9c0 4.2-2.13 6.45-5.94 6.45s-5.94-2.24-5.94-6.45Zm5.94 5.02c3.1 0 4.45-1.83 4.45-5.02v-2.9c0-3.19-1.34-5.02-4.45-5.02s-4.45 1.83-4.45 5.02v2.9c0 3.19 1.34 5.02 4.45 5.02ZM197.17 90.2h2.84l7.04 15.07V90.2h1.47v15.4h-2.95l-6.93-15.01v15.01h-1.47V90.2Z"/>
        <g>
            <path fill="#041f27" class="hubl" d="M82.87 51.92c0 6.32-3.74 8.81-9.29 8.81s-9.29-2.49-9.29-8.81V20.5H52.32v32.77c0 11.21 7.95 18.49 21.27 18.49s21.27-7.28 21.27-18.49V20.5H82.88v31.42ZM128.69 19.64c-4.98 0-8.91 1.25-11.98 3.55V0h-11.97v70.89h11.97v-2.68c3.07 2.3 6.99 3.54 11.98 3.54 12.84 0 20.21-8.34 20.21-21.36V41c0-13.03-7.38-21.36-20.21-21.36Zm8.24 30.75c0 7-3.54 9.87-10.16 9.87s-10.06-2.87-10.06-9.87V41c0-6.04 3.45-9.87 10.06-9.87s10.16 3.83 10.16 9.87v9.39ZM170.02 59.4V0h-11.97v56.23c0 9.1 6.42 14.66 15.14 14.66h5.84v-11.5h-9.01ZM.21 70.89h11.97V39.47c0-1.14.13-2.15.36-3.05C4.35 39.08.21 45.84.21 56.63v14.26Z"/>
            <path fill="#041f27" class="hubl" d="M21.48 30.65c5.56 0 9.29 2.49 9.29 8.81v31.42h11.97V38.13c0-11.21-7.95-18.49-21.27-18.49-3.48 0-6.59.51-9.29 1.45V0H.21v9.16c0 14.13 7.1 21.36 21.09 21.5h.17Z"/>
        </g>
    </g>
</svg>